# xmcd CD database file
# Copyright (C) 1993-1996 Ti Kan
#
# Track frame offsets:
# 150
# 13660
# 28110
# 45815
# 64172
# 82185
# 94232
# 107337
# 119482
# 134535
# 148215
# 159930
# 175440
# 188297
# 200517
# 212675
# 225205
# 238370
# 250785
# 263810
# 276360
# 287340
# 300970
# 313690
# 325965
# 339000
#
# Disc length: 4687 seconds
#
# Revision: 0
# Processed by: cddbd v1.4b41PL1 Copyright (c) Steve Scherf et al.
# Submitted via: inCDius 1.1b5
#
DISCID=68124d1a
DTITLE=Ray Price - Ray Price And The Cherokee Cowboys Disc 6
DYEAR=1900
DGENRE=
TTITLE0=The Old Rugged Cross
TTITLE1=In The Garden
TTITLE2=How Big Is God
TTITLE3=Until Then
TTITLE4=Help Through My Unbelief
TTITLE5=When I Take My Vacation In Heaven
TTITLE6=Faith
TTITLE7=Rock Of Ages
TTITLE8=Softly And Tenderly
TTITLE9=When The Roll Is Called Up Yonder
TTITLE10=Just As I Am
TTITLE11=Where He Leads Me (I Will Follow)
TTITLE12=Now The Day Is Over
TTITLE13=I Can't Run Away From Myself
TTITLE14=I Wish I Could Fall In Love Today
TTITLE15=Heart Over Mind
TTITLE16=The Twenty-Fourth Hour
TTITLE17=Walkin' Slow (And Thinking 'Bout Her)
TTITLE18=Soft Rain
TTITLE19=Here We Are Again
TTITLE20=You're Stronger Than Me
TTITLE21=This Cold War With You
TTITLE22=Soft Rain
TTITLE23=Imagination's A Wonderful Thing
TTITLE24=Walking Slow (And Thinking 'Bout Her)
TTITLE25=Soft Rain
EXTD=
EXTT0=
EXTT1=
EXTT2=
EXTT3=
EXTT4=
EXTT5=
EXTT6=
EXTT7=
EXTT8=
EXTT9=
EXTT10=
EXTT11=
EXTT12=
EXTT13=
EXTT14=
EXTT15=
EXTT16=
EXTT17=
EXTT18=
EXTT19=
EXTT20=
EXTT21=
EXTT22=
EXTT23=
EXTT24=
EXTT25=
PLAYORDER=
